<?xml version="1.0" encoding="UTF-8" standalone="no"?>
<!-- Created with Inkscape (http://www.inkscape.org/) -->

<svg
   xmlns:dc="http://purl.org/dc/elements/1.1/"
   xmlns:cc="http://creativecommons.org/ns#"
   xmlns:rdf="http://www.w3.org/1999/02/22-rdf-syntax-ns#"
   xmlns:svg="http://www.w3.org/2000/svg"
   xmlns="http://www.w3.org/2000/svg"
   xmlns:sodipodi="http://sodipodi.sourceforge.net/DTD/sodipodi-0.dtd"
   xmlns:inkscape="http://www.inkscape.org/namespaces/inkscape"
   width="210mm"
   height="297mm"
   viewBox="0 0 210 297"
   version="1.1"
   id="svg8"
   inkscape:version="0.92.3 (2405546, 2018-03-11)"
   sodipodi:docname="remora-fish.svg"
   inkscape:export-filename="/home/martin/Documents/PlatformIO/Projects/Remora/docs/remora-370.png"
   inkscape:export-xdpi="95.419998"
   inkscape:export-ydpi="95.419998">
  <defs
     id="defs2" />
  <sodipodi:namedview
     id="base"
     pagecolor="#ffffff"
     bordercolor="#666666"
     borderopacity="1.0"
     inkscape:pageopacity="0.0"
     inkscape:pageshadow="2"
     inkscape:zoom="5.6"
     inkscape:cx="115.80383"
     inkscape:cy="1035.321"
     inkscape:document-units="mm"
     inkscape:current-layer="layer2"
     showgrid="false"
     showguides="true"
     inkscape:window-width="1366"
     inkscape:window-height="713"
     inkscape:window-x="0"
     inkscape:window-y="27"
     inkscape:window-maximized="1"
     inkscape:guide-bbox="true"
     inkscape:snap-nodes="false">
    <sodipodi:guide
       position="37.419642,280.83632"
       orientation="0,1"
       id="guide44"
       inkscape:locked="false" />
  </sodipodi:namedview>
  <metadata
     id="metadata5">
    <rdf:RDF>
      <cc:Work
         rdf:about="">
        <dc:format>image/svg+xml</dc:format>
        <dc:type
           rdf:resource="http://purl.org/dc/dcmitype/StillImage" />
        <dc:title></dc:title>
      </cc:Work>
    </rdf:RDF>
  </metadata>
  <g
     inkscape:groupmode="layer"
     id="layer2"
     inkscape:label="background"
     style="display:inline;opacity:1">
    <rect
       style="opacity:0.2;fill:#ffffff;stroke-width:0.26458332"
       id="rect139"
       width="98.488823"
       height="30.468729"
       x="6.0135641"
       y="4.0725999"
       inkscape:export-xdpi="30.844736"
       inkscape:export-ydpi="30.844736" />
  </g>
  <g
     inkscape:groupmode="layer"
     id="layer3"
     inkscape:label="shape">
    <path
       style="opacity:1;fill:#ffffff;stroke:#000000;stroke-width:0.26458332px;stroke-linecap:butt;stroke-linejoin:miter;stroke-opacity:1"
       d="m 33.699724,13.207135 3.058203,0.716812 16.158482,0.09449 c 0,0 11.429031,-2.047259 14.358347,-1.574788 2.929313,0.47247 12.288973,2.80321 12.288973,2.80321 l -0.566965,0.850447 4.110492,0.09449 c 0,0 3.802523,-2.542372 10.441594,-2.740327 5.338426,-0.159174 5.259026,0.523109 5.090866,0.720515 l -0.27167,0.318915 c 0,0 -1.35177,0.936367 -1.03944,1.370164 l 0.85045,1.181175 c -0.98159,2.325964 -2.17929,1.233251 0.0945,3.779762 0,0 -1.22843,1.181176 -6.803574,0.47247 -1.886475,-0.239806 -4.530633,-1.907453 -7.465026,-1.984375 -5.535195,-0.145099 -40.065479,9.638392 -49.325896,5.669643 -9.260416,-3.96875 -3.590772,-1.039435 -3.590772,-1.039435 l 2.456844,1.322917 c 0,0 0.47247,0.755953 1.133929,1.606399 0.661458,0.850447 1.417407,1.41741 1.417407,1.41741 0,0 -12.095237,-6.614583 -19.087797,-8.315475 -5.142561,-1.250893 -5.480655,-1.606399 -5.480655,-1.606399 0,0 1.748434,-2.424264 5.764137,-3.401785 4.195968,-1.021403 2.108231,-1.015116 16.407571,-1.756235 z"
       id="path91"
       inkscape:connector-curvature="0"
       sodipodi:nodetypes="cccscccsscsccsssccccscsc"
       inkscape:export-xdpi="28.286236"
       inkscape:export-ydpi="28.286236" />
  </g>
  <g
     id="g58"
     inkscape:groupmode="layer"
     inkscape:label="eyes"
     style="display:inline">
    <circle
       r="0.99218744"
       cy="17.145184"
       cx="26.516722"
       id="circle68"
       style="display:inline;opacity:0.8;fill:#ff0000;stroke-width:0.2315104" />
    <circle
       style="display:inline;opacity:0.6;fill:#ff0000;stroke-width:0.2315104"
       id="circle70"
       cx="31.335911"
       cy="17.145184"
       r="0.99218744" />
    <circle
       r="0.99218744"
       cy="17.145184"
       cx="36.748119"
       id="circle114"
       style="display:inline;opacity:0.4;fill:#ff0000;stroke-width:0.2315104" />
    <circle
       style="display:inline;opacity:0.2;fill:#ff0000;stroke-width:0.2315104"
       id="circle118"
       cx="42.157902"
       cy="17.121559"
       r="0.99218744" />
    <circle
       style="display:inline;opacity:1;fill:#1a1a1a;stroke-width:0.2315104"
       id="circle64"
       cx="21.733631"
       cy="17.203127"
       r="0.99218744" />
  </g>
</svg>
